<?xml version="1.0" encoding="UTF-8"?>
<svg id="Layer_1" data-name="Layer 1" xmlns="http://www.w3.org/2000/svg" viewBox="0 0 1024 1024">
  <defs>
    <style>
      .cls-1 {
        fill: #8e4dff;
      }

      .cls-2 {
        fill: #e8e6e5;
      }
    </style>
  </defs>
  <rect class="cls-2" x="7.25" y="7.25" width="1009.49" height="1009.49" rx="207.33" ry="207.33"/>
  <g>
    <path class="cls-1" d="M214.86,582.94c1.27-7.65,18.14-23.98,24.29-30.32,64.5-66.54,132.18-131.2,197.48-196.72,53.75-53.94,106.39-109.31,161.72-161.55l5.92-2.87,196.91-.24c4.88.87,8.92,7.25,6.86,11.87l-286.72,288.3c-2.58,4.64-1.53,10.33,1.7,14.37l276.9,276.73c5.6,6.67,8.13,9.69,8.81,18.81.73,9.9,2.3,29.92-10.8,31.99l-149.37.12c-8.79-.85-17.31-4.09-23.84-10.06l-208.34-209.71c-5.16-5.71-9.6-3.91-15.09.03-7.48,5.37-17.47,17.75-24.44,24.51-53.47,51.84-105.67,105.35-159.5,156.91l-2.49-1.27v-210.91Z"/>
    <path class="cls-1" d="M216.43,194.7c1.54-1.59,8.97-4.22,11.54-4.14l150.74.03c11.95,1.84,13.7,10.15,14.46,20.69,2.8,39.01-2.24,81.27.01,120.63l-2.32,7.72-159.61,160.51c-7.01,5.47-15.6,1.01-16.43-7.57l-.02-291.34c.15-2.01.19-5.05,1.63-6.54Z"/>
  </g>
</svg>